<svg xmlns="http://www.w3.org/2000/svg" viewBox="0 0 490.667 490.667"><path d="M245.333 0C109.839 0 0 109.839 0 245.333s109.839 245.333 245.333 245.333 245.333-109.839 245.333-245.333C490.514 109.903 380.764.153 245.333 0z" fill="#fff"/><path d="M373.333 192H249.749l19.2-19.2c18.893-18.881 18.902-49.503.021-68.395l-.021-.021c-19.179-18.247-49.317-18.181-68.416.149L82.219 222.699c-12.492 12.496-12.492 32.752 0 45.248l118.315 118.187c17.565 20.137 48.13 22.222 68.267 4.656 20.137-17.565 22.222-48.13 4.656-68.267a48.374 48.374 0 00-4.656-4.656l-19.2-19.2h123.733c29.455 0 53.333-23.878 53.333-53.333S402.789 192 373.333 192z" fill="#8BA4FF"/></svg>